<svg width="24" height="24" viewBox="0 0 24 24" fill="none" xmlns="http://www.w3.org/2000/svg">
<path d="M20.7433 5.27537H17.1291V0.879228C17.1291 0.39448 16.7358 0 16.2499 0H9.0584C8.8386 0 8.627 0.0832336 8.46463 0.23153L2.6629 5.54324C2.48119 5.71029 2.37744 5.94651 2.37744 6.19152V17.8454C2.37744 18.3296 2.77075 18.7246 3.25667 18.7246H6.87088V23.1208C6.87088 23.6049 7.26419 24 7.75011 24H20.7428C21.2287 24 21.622 23.6049 21.622 23.1208V6.1546C21.6226 5.66985 21.2287 5.27537 20.7433 5.27537ZM8.39253 2.68223V5.94944H4.82345L8.39253 2.68223ZM4.13648 16.9662V7.7079H9.27176C9.75768 7.7079 10.151 7.31401 10.151 6.82867V1.75846H15.3707V5.27537H13.5513C13.3315 5.27537 13.1204 5.35919 12.9575 5.50749L7.15634 10.8198C6.97463 10.9857 6.87088 11.2225 6.87088 11.4675V16.9662H4.13648ZM12.886 7.9576V11.2236H9.31865L12.886 7.9576ZM19.8641 22.2415H8.62993V12.9821H13.7658C14.2511 12.9821 14.645 12.5882 14.645 12.1029V7.03383H19.8641V22.2415Z" fill="#999999"/>
</svg>
