<svg width="20" height="20" viewBox="0 0 20 20" fill="none" xmlns="http://www.w3.org/2000/svg">
<rect x="0.5" y="0.5" width="19" height="19" rx="9.5" stroke="white"/>
<path d="M7.5 7.00001C7.40111 7.00001 7.30444 7.02933 7.22222 7.08427C7.13999 7.13921 7.0759 7.2173 7.03806 7.30867C7.00022 7.40003 6.99032 7.50056 7.00961 7.59755C7.0289 7.69454 7.07652 7.78364 7.14645 7.85356C7.21637 7.92349 7.30546 7.97111 7.40246 7.9904C7.49945 8.00969 7.59998 7.99979 7.69134 7.96195C7.78271 7.9241 7.86079 7.86002 7.91574 7.77779C7.97068 7.69557 8 7.5989 8 7.50001C8 7.3674 7.94732 7.24022 7.85355 7.14646C7.75979 7.05269 7.63261 7.00001 7.5 7.00001ZM14.855 9.89001L10.115 5.16001C10.0684 5.10974 10.0119 5.0696 9.94913 5.04207C9.88634 5.01455 9.81856 5.00023 9.75 5.00001H6.75C6.6842 4.99963 6.61897 5.01224 6.55805 5.03712C6.49713 5.06201 6.44172 5.09867 6.395 5.14501L5.145 6.39001C5.09866 6.43673 5.062 6.49214 5.03712 6.55306C5.01223 6.61397 4.99962 6.6792 5 6.74501V9.74501C5.00184 9.87739 5.05363 10.0042 5.145 10.1L9.89 14.85C9.98582 14.9414 10.1126 14.9932 10.245 14.995C10.3108 14.9954 10.376 14.9828 10.437 14.9579C10.4979 14.933 10.5533 14.8963 10.6 14.85L14.855 10.595C14.9013 10.5483 14.938 10.4929 14.9629 10.432C14.9878 10.371 15.0004 10.3058 15 10.24C14.9969 10.1094 14.9452 9.98456 14.855 9.89001ZM10.245 13.795L6 9.54501V6.95001L6.95 6.00001H9.54L13.79 10.245L10.245 13.795Z" fill="white"/>
</svg>
