<svg width="20" height="20" viewBox="0 0 20 20" fill="none" xmlns="http://www.w3.org/2000/svg">
<rect x="0.5" y="0.5" width="19" height="19" rx="9.5" stroke="white"/>
<path d="M9.42937 5.35624C9.60898 4.80345 10.391 4.80345 10.5706 5.35624L11.2124 7.33132C11.2927 7.57853 11.5231 7.74591 11.783 7.74591H13.8597C14.441 7.74591 14.6826 8.48968 14.2124 8.83132L12.5323 10.052C12.322 10.2048 12.234 10.4756 12.3143 10.7228L12.9561 12.6979C13.1357 13.2507 12.503 13.7103 12.0328 13.3687L10.3527 12.148C10.1424 11.9953 9.85762 11.9953 9.64733 12.148L7.96723 13.3687C7.497 13.7103 6.86431 13.2507 7.04392 12.6979L7.68566 10.7228C7.76599 10.4756 7.67799 10.2048 7.4677 10.052L5.7876 8.83132C5.31737 8.48968 5.55904 7.74591 6.14027 7.74591H8.21699C8.47693 7.74591 8.7073 7.57853 8.78762 7.33132L9.42937 5.35624Z" fill="white"/>
</svg>
