<svg width="20" height="20" viewBox="0 0 20 20" fill="none" xmlns="http://www.w3.org/2000/svg">
<rect x="0.5" y="0.5" width="19" height="19" rx="9.5" stroke="white"/>
<path d="M13.5 8H13V6.5C13 6.10218 12.842 5.72064 12.5607 5.43934C12.2794 5.15804 11.8978 5 11.5 5H6.5C6.10218 5 5.72064 5.15804 5.43934 5.43934C5.15804 5.72064 5 6.10218 5 6.5V12.5C5.00049 12.5987 5.03019 12.6951 5.08536 12.7769C5.14053 12.8588 5.21869 12.9225 5.31 12.96C5.36934 12.988 5.43441 13.0017 5.5 13C5.5658 13.0004 5.63103 12.9878 5.69195 12.9629C5.75287 12.938 5.80828 12.9013 5.855 12.855L7.26 11.445H8V12.165C8 12.5628 8.15804 12.9444 8.43934 13.2257C8.72064 13.507 9.10218 13.665 9.5 13.665H12.96L14.145 14.855C14.1917 14.9013 14.2471 14.938 14.308 14.9629C14.369 14.9878 14.4342 15.0004 14.5 15C14.5656 15.0017 14.6307 14.988 14.69 14.96C14.7813 14.9225 14.8595 14.8588 14.9146 14.7769C14.9698 14.6951 14.9995 14.5987 15 14.5V9.5C15 9.10218 14.842 8.72064 14.5607 8.43934C14.2794 8.15804 13.8978 8 13.5 8ZM8 9.5V10.445H7.055C6.9892 10.4446 6.92397 10.4572 6.86305 10.4821C6.80213 10.507 6.74672 10.5437 6.7 10.59L6 11.295V6.5C6 6.36739 6.05268 6.24021 6.14645 6.14645C6.24021 6.05268 6.36739 6 6.5 6H11.5C11.6326 6 11.7598 6.05268 11.8536 6.14645C11.9473 6.24021 12 6.36739 12 6.5V8H9.5C9.10218 8 8.72064 8.15804 8.43934 8.43934C8.15804 8.72064 8 9.10218 8 9.5ZM14 13.295L13.5 12.795C13.4537 12.7478 13.3985 12.7102 13.3375 12.6844C13.2766 12.6587 13.2112 12.6453 13.145 12.645H9.5C9.36739 12.645 9.24021 12.5923 9.14645 12.4986C9.05268 12.4048 9 12.2776 9 12.145V9.5C9 9.36739 9.05268 9.24021 9.14645 9.14645C9.24021 9.05268 9.36739 9 9.5 9H13.5C13.6326 9 13.7598 9.05268 13.8536 9.14645C13.9473 9.24021 14 9.36739 14 9.5V13.295Z" fill="white"/>
</svg>
